<svg xmlns="http://www.w3.org/2000/svg" xmlns:xlink="http://www.w3.org/1999/xlink" viewBox="0 0 500 334.55" version="1.1" transform="matrix(-1,0,0,1,0,0)"><defs><linearGradient id="linear-gradient" x1="259.79" y1="288.85" x2="259.79" y2="64.87" gradientUnits="userSpaceOnUse"><stop offset="0" stop-color="#fff"></stop><stop offset="1" stop-color="#cbe1ff"></stop></linearGradient></defs><title>Asset 1</title><g id="Layer_2" data-name="Layer 2"><g id="Character"><g style="opacity:0.2"><rect y="300.72" width="500" height="0.25" style="fill:#ebebeb"></rect><rect x="416.78" y="316.81" width="33.12" height="0.25" style="fill:#ebebeb"></rect><rect x="322.53" y="319.52" width="8.69" height="0.25" style="fill:#ebebeb"></rect><rect x="396.59" y="307.53" width="19.19" height="0.25" style="fill:#ebebeb"></rect><rect x="52.46" y="309.21" width="43.19" height="0.25" style="fill:#ebebeb"></rect><rect x="104.56" y="309.21" width="6.33" height="0.25" style="fill:#ebebeb"></rect><rect x="131.47" y="313.43" width="93.68" height="0.25" style="fill:#ebebeb"></rect></g><rect x="358.99" y="48.33" width="14.17" height="44.11" style="fill:#e6e6e6"></rect><polygon points="411.57 92.44 364.55 92.44 357.45 40.81 404.47 40.81 411.57 92.44" style="fill:#f0f0f0"></polygon><polygon points="416.66 92.44 368.1 92.44 361 40.81 409.56 40.81 416.66 92.44" style="fill:#f5f5f5"></polygon><polygon points="371.61 88.37 365.63 44.88 406.05 44.88 412.04 88.37 371.61 88.37" style="fill:#fff"></polygon><path d="M379.6,75.2l-2.25-16.33a3,3,0,0,1,3-3.46h14.69a3,3,0,0,1,3,2.63l2.25,16.33a3,3,0,0,1-3,3.46H382.61A3,3,0,0,1,379.6,75.2Z" style="fill:#cbe1ff"></path><rect x="73.16" width="211.79" height="130.65" style="fill:#e6e6e6"></rect><rect x="75.7" width="214.69" height="130.65" style="fill:#f0f0f0"></rect><rect x="73.16" y="130.65" width="211.79" height="10.11" style="fill:#e6e6e6"></rect><rect x="84.76" y="130.65" width="214.69" height="10.11" style="fill:#f0f0f0"></rect><rect x="125.33" y="-34.4" width="115.42" height="199.45" transform="translate(248.37 -117.71) rotate(90)" style="fill:#cbe1ff"></rect><polygon points="97.96 123.04 142.67 7.62 163.77 7.62 119.06 123.04 97.96 123.04" style="fill:#fff"></polygon><polygon points="123.6 123.04 168.31 7.62 176.53 7.62 131.82 123.04 123.6 123.04" style="fill:#fff"></polygon><polygon points="201.82 123.04 246.53 7.62 254.75 7.62 210.05 123.04 201.82 123.04" style="fill:#fff"></polygon><rect x="224.57" y="64.84" width="115.42" height="0.97" transform="translate(347.61 -216.96) rotate(90)" style="fill:#e6e6e6"></rect><rect x="400.66" y="92.44" width="44.84" height="208.28" style="fill:#cbe1ff"></rect><polygon points="440.99 300.71 445.5 300.71 445.5 287.89 436.26 287.89 440.99 300.71" style="fill:#f0f0f0"></polygon><rect x="322.09" y="92.44" width="44.84" height="208.28" style="fill:#cbe1ff"></rect><rect x="362.99" y="92.44" width="82.51" height="200.41" style="fill:#f0f0f0"></rect><polygon points="367.5 300.71 362.99 300.71 362.99 287.89 372.23 287.89 367.5 300.71" style="fill:#f0f0f0"></polygon><rect x="366.49" y="96.11" width="75.51" height="94.54" style="fill:#cbe1ff"></rect><path d="M412.42,103.47H396.07a25.87,25.87,0,0,1-18.78-8.08H431.2A25.87,25.87,0,0,1,412.42,103.47Z" style="fill:#f0f0f0"></path><rect x="366.49" y="194.48" width="75.51" height="94.54" style="fill:#cbe1ff"></rect><path d="M412.42,201.83H396.07a25.87,25.87,0,0,1-18.78-8.08H431.2A25.87,25.87,0,0,1,412.42,201.83Z" style="fill:#f0f0f0"></path><polygon points="129.5 158.21 204.12 158.21 214.94 202.27 140.31 202.27 129.5 158.21" style="fill:#e6e6e6"></polygon><polygon points="140.31 202.27 140.62 204.71 215.24 204.71 214.94 202.27 140.31 202.27" style="fill:#e6e6e6"></polygon><polygon points="131.8 158.21 206.42 158.21 217.24 202.27 142.61 202.27 131.8 158.21" style="fill:#f0f0f0"></polygon><polygon points="144.19 200.26 134.36 160.22 204.84 160.22 214.67 200.26 144.19 200.26" style="fill:#fff"></polygon><polygon points="162.06 202.27 162.36 204.71 244.53 204.71 244.23 202.27 162.06 202.27" style="fill:#f0f0f0"></polygon><rect x="254.34" y="204.71" width="8.94" height="96" style="fill:#e6e6e6"></rect><rect x="259.9" y="204.71" width="6.21" height="96" style="fill:#f0f0f0"></rect><rect x="152.82" y="204.71" width="115.21" height="10.99" transform="translate(420.86 420.4) rotate(180)" style="fill:#f0f0f0"></rect><rect x="139.88" y="215.7" width="8.94" height="85.01" style="fill:#e6e6e6"></rect><rect x="145.43" y="215.7" width="6.21" height="85.01" style="fill:#f0f0f0"></rect><rect x="83.29" y="215.7" width="8.94" height="85.01" style="fill:#e6e6e6"></rect><rect x="88.85" y="215.7" width="6.21" height="85.01" style="fill:#f0f0f0"></rect><rect x="197.76" y="215.7" width="8.94" height="85.01" style="fill:#e6e6e6"></rect><rect x="203.31" y="215.7" width="6.21" height="85.01" style="fill:#f0f0f0"></rect><rect x="83.29" y="204.71" width="69.53" height="10.99" style="fill:#e6e6e6"></rect><path d="M292.34,300.72h-2.18l-6.22-30.64-1.09-5.37-6.78-33.39h-26L236,300.72H233.8L248.16,230a1.06,1.06,0,0,1,1-.85h27.74a1.05,1.05,0,0,1,1,.85l6,29.33,1.09,5.36Z" style="fill:#f0f0f0"></path><path d="M334.09,300.72h-2.18l-14.1-69.4h-26L285,264.72l-1.08,5.35-6.22,30.64h-2.18l7.31-36,1.08-5.34,6-29.33a1.07,1.07,0,0,1,1-.85h27.74a1.06,1.06,0,0,1,1,.85Z" style="fill:#f0f0f0"></path><path d="M270,230.25h47.78c9.12,0,14.18-6.2,16.75-16.42l1.27-5.84a12,12,0,0,0-11.69-14.81h-30c-6.21,0-7.84,1.48-12.13,10.82Z" style="fill:#f0f0f0"></path><path d="M242.75,221.09h50.92a2.39,2.39,0,0,1,2.39,2.39v.22a6.54,6.54,0,0,1-6.54,6.54H242.75a0,0,0,0,1,0,0v-9.16a0,0,0,0,1,0,0Z" transform="translate(538.8 451.34) rotate(-180)" style="fill:#f0f0f0"></path><polygon points="203.03 302.57 196.63 306.69 185.03 293.2 191.43 289.07 203.03 302.57" style="fill:#ff8b7b"></polygon><polygon points="191.44 289.08 185.03 293.2 191.02 300.15 197.42 296.03 191.44 289.08" style="opacity:0.2"></polygon><polygon points="154.12 324.57 146.76 325.29 139.11 307.79 146.47 307.07 154.12 324.57" style="fill:#ff8b7b"></polygon><polygon points="139.12 307.8 143.06 316.81 150.73 316.81 146.47 307.08 139.12 307.8" style="opacity:0.2"></polygon><path d="M98.23,88.32c-3.7.34-3.8-5.94-10.3-3C79.67,89.1,82.46,94.93,76,94.68s-10.78,4.79-9.33,8.55,3.67,7.29-.89,8.8-7.67,2.84-7,6.62,3.89,5.3-1.56,7.71-4.89,12.83.44,12.84.22,5.21,5,10.48,12.05,6,15.08,3.4,6.41-4.76,12.11-.76,15.34,5,14.91-1.33-6-10.5-.76-13.81,12-4.93,9.87-11.34c-1.35-4-5.43-7.48-2.13-10.48,5.35-4.86,5.38-15.86-1.18-18.65C106.77,95.1,110.44,87.21,98.23,88.32Z" style="fill:#cbe1ff"></path><path d="M91.11,137.73a85.34,85.34,0,0,1-1,8.49c-.47,2.78-1.08,5.55-1.8,8.3a63,63,0,0,1-2.72,8.16c-.54,1.34-1.16,2.67-1.82,4-.33.66-.69,1.31-1.06,2-.18.32-.38.64-.57,1l-.29.48a6.93,6.93,0,0,1-.65.88,5.83,5.83,0,0,1-2,1.47,6.17,6.17,0,0,1-2.16.55,8.5,8.5,0,0,1-3.24-.44,19.51,19.51,0,0,1-4.4-2.16,54.09,54.09,0,0,1-6.83-5.29A114.57,114.57,0,0,1,51.12,153l2.8-2.64c2,1.76,4,3.55,6.1,5.25s4.13,3.4,6.25,5a52.61,52.61,0,0,0,6.4,4.23,13.05,13.05,0,0,0,3,1.23,1.94,1.94,0,0,0,.78.07s-.06,0-.2,0a1.25,1.25,0,0,0-.36.24l0,.05s0,.07,0,0l.22-.4c.14-.27.3-.53.43-.81.28-.55.55-1.11.8-1.68.51-1.14,1-2.31,1.4-3.51.84-2.4,1.54-4.88,2.16-7.4s1.09-5.09,1.5-7.68.75-5.25,1-7.7Z" style="fill:#ff8b7b"></path><path d="M96.92,138.68c-.4,2.42-2.41,7-4,10.4-1.18,2.46-2.14,4.31-2.14,4.31l-1.4-.62-11.59-5.16c.88-6.25,2.31-13.05,9.2-16.07C91.29,129.64,97.63,134.36,96.92,138.68Z" style="fill:#407bff"></path><path d="M96.92,138.68c-.4,2.42-2.41,7-4,10.4-1.18,2.46-2.14,4.31-2.14,4.31l-1.4-.62-11.59-5.16c.88-6.25,2.31-13.05,9.2-16.07C91.29,129.64,97.63,134.36,96.92,138.68Z" style="opacity:0.6000000000000001"></path><path d="M92.89,149.08c-1.18,2.46-2.14,4.31-2.14,4.31l-1.4-.62c.19-2.47.68-6.36,2-8.11A11,11,0,0,1,92.89,149.08Z" style="opacity:0.30000000000000004"></path><path d="M54.37,152.61l.92-6.73-7.56,2.48s1.21,4.08,3.9,5.74Z" style="fill:#ff8b7b"></path><polygon points="51.87 140.13 46.6 143.02 47.74 148.36 55.29 145.88 51.87 140.13" style="fill:#ff8b7b"></polygon><path d="M194.27,304.67l6.95-5a.6.6,0,0,1,.8.07l4.73,4.93a1.22,1.22,0,0,1-.2,1.81c-2.45,1.7-3.72,2.39-6.78,4.58-1.88,1.35-5.84,4.61-8.44,6.47s-4.58-.61-3.66-1.61c4.1-4.52,5.19-7.6,5.84-10.14A2,2,0,0,1,194.27,304.67Z" style="fill:#263238"></path><path d="M145.79,323h9a.75.75,0,0,1,.71.55l2,7.14a1.12,1.12,0,0,1-1.1,1.43c-3.18,0-4.69,0-8.66,0H135.6c-3.3,0-4-3.34-2.62-3.64,6.12-1.35,9.65-3.22,11.54-5A1.85,1.85,0,0,1,145.79,323Z" style="fill:#263238"></path><path d="M132.05,165.78l-29.47,9.32c-20.4-40.38-17.49-42.52-17.49-42.52s4.71-2.69,9.61-4.93c.74-.34,1.49-.67,2.23-1a98.39,98.39,0,0,1,13.38-4.24c.67-.18,1.34-.34,2-.5a94,94,0,0,1,11-1.81c.44,5.59.88,10.32,1.36,14.43.62,5.36,1.29,9.65,2,13.36A116.71,116.71,0,0,0,132.05,165.78Z" style="fill:#407bff"></path><path d="M132.05,165.78l-29.47,9.32c-20.4-40.38-17.49-42.52-17.49-42.52s4.71-2.69,9.61-4.93c.74-.34,1.49-.67,2.23-1a98.39,98.39,0,0,1,13.38-4.24c.67-.18,1.34-.34,2-.5a94,94,0,0,1,11-1.81c.44,5.59.88,10.32,1.36,14.43.62,5.36,1.29,9.65,2,13.36A116.71,116.71,0,0,0,132.05,165.78Z" style="fill:#cbe1ff;opacity:0.6000000000000001"></path><path d="M126.75,147.91c-2.83-4-5.54-13.31-4.84-16.8l2.8,3.44C125.33,139.91,126,144.2,126.75,147.91Z" style="opacity:0.30000000000000004"></path><path d="M103.63,140.12s7.44-1.61,9.83,1.61c3.28-3.22,2.12-15.85.54-20.35a19.57,19.57,0,0,0-3.67,1l-5.25,8.12Z" style="fill:#fff"></path><path d="M103.63,140.12s-5,1.12-5.53,5.21c-7-5.21-6.51-12.84-4.93-17.34a17.9,17.9,0,0,1,3.76-1.32l5.25,5.77Z" style="fill:#fff"></path><path d="M105.34,113.91c1,3.68,2.52,7.32,5,8.52,0,0,2.31,6.62-6.69,17.69-9.42-6.71-6.69-13.45-6.69-13.45,4.44-2.67,3.19-6.19,1.29-9.27l2.61-4.19A2.48,2.48,0,0,1,105.34,113.91Z" style="fill:#ff8b7b"></path><path d="M105.34,113.91a2.48,2.48,0,0,0-4.51-.7l-.84,1.34h0c.07.89.11,1.62.1,2-.08,2.6,3.57,2.48,6.54,1.23A26.32,26.32,0,0,1,105.34,113.91Z" style="opacity:0.2"></path><path d="M87.25,103.85c2.6,7.09,3.54,10.15,8.3,12.77,7.15,3.94,15.3-.79,14.87-8.52-.38-7-4.56-17.39-12.49-18.16A10.3,10.3,0,0,0,87.25,103.85Z" style="fill:#ff8b7b"></path><path d="M105.64,93.2c-2.43-2.35-5-5.08-9.9-4.55-5.42.59-7.56,3.87-7.56,3.87l-4.66,10.19s2.89,13.12,7.66,7c2.74-3.53,2.86-8.87,1.79-12.88a32.6,32.6,0,0,0,5.52-1.28c2.2.82,4.67.83,6.5-.86.4-.37.69-.66.9-.88l.16-.19C106.63,92.91,106.18,93,105.64,93.2Zm-6.3,2.08a50.17,50.17,0,0,1,5.2-1.39A5.12,5.12,0,0,1,99.34,95.28Z" style="fill:#263238"></path><path d="M87.61,111.06A5.52,5.52,0,0,0,91,113.6c1.88.47,2.77-1.22,2.2-3-.51-1.57-2.1-3.71-4-3.41A2.48,2.48,0,0,0,87.61,111.06Z" style="fill:#ff8b7b"></path><path d="M102.58,175.1s-1,60.4,6.89,82.22c7.6,20.92,30.27,56.88,30.27,56.88l13.14-.34S132,268.33,128.59,250.32c-5.68-29.87-4.42-82-4.42-82Z" style="fill:#407bff"></path><path d="M114.38,180.27l3.53-10,6.25-2s-.57,23.73.8,48.34C119.29,205.74,114.38,185.74,114.38,180.27Z" style="opacity:0.30000000000000004"></path><polygon points="137.89 314.88 154.12 314.47 153.18 309.48 135.46 310.32 137.89 314.88" style="fill:#263238"></polygon><path d="M109,173.15s20.49,46.9,33.74,73.58c10.7,21.56,44,50.48,44,50.48l9.13-6.33S170.86,256.63,163.47,242c-23.65-46.79-17.82-66.07-31.42-76.23Z" style="fill:#407bff"></path><polygon points="187.29 300.24 198.01 292.61 195.58 287.93 183.8 296.84 187.29 300.24" style="fill:#263238"></polygon><path d="M131.95,163.91l2.16,2.22c.17.17,0,.46-.35.57l-30.91,9.78c-.27.08-.53,0-.6-.14l-1.1-2.55c-.08-.18.11-.4.4-.5l29.84-9.44A.56.56,0,0,1,131.95,163.91Z" style="fill:#263238"></path><path d="M129,168.52l.8-.25c.16-.05.25-.17.21-.27l-1.46-3.31c0-.1-.21-.13-.37-.08l-.8.25c-.16.05-.25.17-.21.27l1.46,3.31C128.67,168.53,128.83,168.57,129,168.52Z" style="fill:#407bff"></path><path d="M105.19,176l.8-.25c.16-.05.25-.17.21-.27l-1.46-3.31c0-.1-.21-.13-.37-.08l-.8.25c-.16.05-.25.17-.21.27l1.46,3.31C104.87,176.06,105,176.1,105.19,176Z" style="fill:#407bff"></path><path d="M117.09,172.28l.8-.25c.16-.05.25-.17.21-.27l-1.46-3.31c0-.1-.21-.13-.37-.08l-.8.25c-.16.05-.25.17-.21.27l1.46,3.31C116.77,172.29,116.93,172.33,117.09,172.28Z" style="fill:#407bff"></path><ellipse cx="100.39" cy="102.09" rx="0.73" ry="1.11" transform="translate(-24.96 32.89) rotate(-16.58)" style="fill:#263238"></ellipse><ellipse cx="107.04" cy="100.11" rx="0.73" ry="1.11" transform="translate(-24.11 34.7) rotate(-16.58)" style="fill:#263238"></ellipse><path d="M106.56,99.13l1.29-.83S107.46,99.62,106.56,99.13Z" style="fill:#263238"></path><path d="M104.68,101.84A16.4,16.4,0,0,0,107.9,105a2.64,2.64,0,0,1-2,1Z" style="fill:#ff5652"></path><path d="M103.92,109.21a.18.18,0,0,0-.17-.31,4.87,4.87,0,0,1-4.34-.69.18.18,0,0,0-.25,0,.18.18,0,0,0,0,.25,5.14,5.14,0,0,0,4.68.76Z" style="fill:#263238"></path><path d="M97.18,100.68a.36.36,0,0,0,.11-.15,2.87,2.87,0,0,1,1.87-1.81A.36.36,0,1,0,99,98a3.58,3.58,0,0,0-2.39,2.26.36.36,0,0,0,.57.4Z" style="fill:#263238"></path><path d="M108.37,96.55l0-.06a.36.36,0,0,0-.29-.42,3.58,3.58,0,0,0-3.18.86.36.36,0,0,0,.52.5,2.86,2.86,0,0,1,2.52-.65A.36.36,0,0,0,108.37,96.55Z" style="fill:#263238"></path><path d="M127.83,127.17c1.19.9,2.19,1.72,3.23,2.63s2,1.8,3,2.73q2.93,2.82,5.61,5.91a65.24,65.24,0,0,1,5,6.53c.4.56.75,1.17,1.12,1.75s.74,1.17,1.07,1.79.68,1.18,1,1.86l.53,1.11.43,1.12a26.4,26.4,0,0,1,1.27,8.8,48,48,0,0,1-.89,8.26,78.59,78.59,0,0,1-2,7.85,74.59,74.59,0,0,1-2.82,7.54l-3.62-1.34c.62-2.4,1.21-4.92,1.65-7.41a73.32,73.32,0,0,0,1.07-7.46,48.49,48.49,0,0,0,.16-7.3,28.86,28.86,0,0,0-.42-3.44,18.54,18.54,0,0,0-.91-3.08l-.3-.69-.35-.63c-.27-.46-.63-1-.94-1.51s-.66-1-1-1.51-.69-1-1.07-1.48c-1.46-2-3.1-3.82-4.75-5.67s-3.44-3.59-5.27-5.29c-.9-.86-1.83-1.7-2.77-2.51s-1.92-1.64-2.79-2.34Z" style="fill:#ff8b7b"></path><path d="M141.92,181.32l-5.48,4,7,3.7s2.09-3.7,1.41-6.79Z" style="fill:#ff8b7b"></path><polygon points="134.71 191.8 140.44 193.57 143.49 189.04 136.44 185.34 134.71 191.8" style="fill:#ff8b7b"></polygon><path d="M123.35,120.12c3.83-.17,11.36,9.24,11.36,9.24l-7.82,11.06s-8.78-7-9.46-11.87C116.86,124.39,118.47,120.34,123.35,120.12Z" style="fill:#407bff"></path><path d="M123.35,120.12c3.83-.17,11.36,9.24,11.36,9.24l-7.82,11.06s-8.78-7-9.46-11.87C116.86,124.39,118.47,120.34,123.35,120.12Z" style="opacity:0.6000000000000001"></path><path d="M191.64,307.8h-.12a1,1,0,0,1-.8-.6.61.61,0,0,1,0-.62c.49-.84,3.23-1,3.55-1a.18.18,0,0,1,.14.3C193.77,306.61,192.58,307.8,191.64,307.8Zm2.2-1.83c-1.1.09-2.56.34-2.81.78a.26.26,0,0,0,0,.27.68.68,0,0,0,.52.41C192.08,307.5,192.92,307,193.84,306Z" style="fill:#407bff"></path><path d="M194.08,305.95c-.92,0-2.74-.51-3.07-1.25a.63.63,0,0,1,.2-.76.94.94,0,0,1,.76-.25c1.1.11,2.38,1.89,2.44,2a.18.18,0,0,1-.13.28Zm-2.22-1.9a.57.57,0,0,0-.4.16c-.17.16-.15.27-.12.35.22.49,1.64,1,2.56,1-.46-.57-1.31-1.47-2-1.54Z" style="fill:#407bff"></path><path d="M141.78,324.51a3,3,0,0,1-1.76-.42,1.12,1.12,0,0,1-.46-.87.52.52,0,0,1,.23-.49c.82-.55,3.89.84,4.5,1.13a.18.18,0,0,1,0,.34A12,12,0,0,1,141.78,324.51ZM140.35,323a.65.65,0,0,0-.35.08.17.17,0,0,0-.07.17.77.77,0,0,0,.32.6c.53.4,1.78.45,3.39.15A11.2,11.2,0,0,0,140.35,323Z" style="fill:#407bff"></path><path d="M144.21,324.2h-.07c-1-.42-3.07-2.06-3-2.92,0-.19.15-.42.62-.48,1.8-.21,2.55,3,2.59,3.19a.18.18,0,0,1-.18.22ZM142,321.14h-.12c-.19,0-.29.08-.3.17-.07.49,1.35,1.8,2.39,2.37C143.7,322.9,143,321.14,142,321.14Z" style="fill:#407bff"></path><path d="M99.91,101.11l1.29-.83S100.81,101.6,99.91,101.11Z" style="fill:#263238"></path><path d="M288.63,28H143.3a11.36,11.36,0,0,0-11.42,12L145.5,322.55a12.76,12.76,0,0,0,12.58,12H303.41a11.36,11.36,0,0,0,11.42-12L301.21,40A12.76,12.76,0,0,0,288.63,28Z"></path><path d="M294,28H148.63a11.36,11.36,0,0,0-11.42,12l13.62,282.57a12.76,12.76,0,0,0,12.58,12H308.74a11.36,11.36,0,0,0,11.42-12L306.54,40A12.76,12.76,0,0,0,294,28Z" style="fill:#263238"></path><path d="M163,326.55a4.3,4.3,0,0,1-4.19-4L145.21,40A3.82,3.82,0,0,1,149,36H294.35a4.3,4.3,0,0,1,4.19,4l13.62,282.57a3.83,3.83,0,0,1-3.81,4Z" style="fill:#407bff"></path><path d="M162.93,324.55a2.18,2.18,0,0,1-2.1-2L147.21,40a1.94,1.94,0,0,1,1.9-2H294.44a2.18,2.18,0,0,1,2.1,2l13.62,282.57a1.94,1.94,0,0,1-1.9,2Z" style="opacity:0.1"></path><g style="opacity:0.30000000000000004"><path d="M206.79,308.28H178a3.12,3.12,0,0,1-3.08-2.93l-2.11-43.71a2.82,2.82,0,0,1,2.84-3h28.83a3.12,3.12,0,0,1,3.08,2.93l2.11,43.71a2.82,2.82,0,0,1-2.84,3Zm-31.18-48.63a1.82,1.82,0,0,0-1.84,1.93l2.11,43.71a2.1,2.1,0,0,0,2.08,2h28.83a1.82,1.82,0,0,0,1.84-1.93l-2.11-43.71a2.1,2.1,0,0,0-2.08-2Z" style="fill:#fafafa"></path><path d="M204.07,269.84H177a.5.5,0,1,1,0-1h27.11a.5.5,0,0,1,0,1Z" style="fill:#fafafa"></path><path d="M204.35,275.49H177.24a.5.5,0,0,1,0-1h27.11a.5.5,0,1,1,0,1Z" style="fill:#fafafa"></path><path d="M204.62,281.14H177.51a.5.5,0,0,1,0-1h27.11a.5.5,0,0,1,0,1Z" style="fill:#fafafa"></path><path d="M204.89,286.78H177.79a.5.5,0,1,1,0-1h27.11a.5.5,0,0,1,0,1Z" style="fill:#fafafa"></path><path d="M205.16,292.43H178.06a.5.5,0,0,1,0-1h27.11a.5.5,0,0,1,0,1Z" style="fill:#fafafa"></path><path d="M199.88,298.08H178.33a.5.5,0,0,1,0-1h21.55a.5.5,0,0,1,0,1Z" style="fill:#fafafa"></path></g><g style="opacity:0.30000000000000004"><path d="M224.94,147.95l-19.77,3.16a22.65,22.65,0,0,0-3-5.28,14.28,14.28,0,0,0-4.13-3l.75,15.49q16.49,4.34,22.18,9.17A22.26,22.26,0,0,1,229,184a21.8,21.8,0,0,1-2.08,10.72,24.36,24.36,0,0,1-6.25,8.15,25.17,25.17,0,0,1-8.37,4.74,41.25,41.25,0,0,1-11.06,1.74l.13,2.72a3.69,3.69,0,0,1-3.72,3.91h0a4.15,4.15,0,0,1-4.1-3.91l-.13-2.72a50.7,50.7,0,0,1-12.9-2.54,27.52,27.52,0,0,1-8.71-5.11,26.86,26.86,0,0,1-5.83-7,34.39,34.39,0,0,1-3.33-9.13L184.21,183q1.22,5.3,3,7.66a14.53,14.53,0,0,0,5.58,4.18l-.91-18.92a105.17,105.17,0,0,1-15.59-5.2,21.79,21.79,0,0,1-8.19-7,21.24,21.24,0,0,1-3.89-11.82,20.24,20.24,0,0,1,5.9-15.94q6.36-6.4,19.5-7.1l-.07-1.39a3.69,3.69,0,0,1,3.72-3.91h0a4.15,4.15,0,0,1,4.1,3.91l.07,1.39q12,.75,18.62,5.68A24.28,24.28,0,0,1,224.94,147.95Zm-34.69-5.36a9.43,9.43,0,0,0-4.63,2.8,5.84,5.84,0,0,0-1.15,3.93,6.81,6.81,0,0,0,1.56,4.12,10.7,10.7,0,0,0,4.89,2.93Zm10.36,52.75q4.5-1,6.51-3.36a7.27,7.27,0,0,0,1.86-5.24,7.4,7.4,0,0,0-2-4.65q-1.89-2.12-7.18-3.94Z" style="fill:#fafafa"></path></g><path d="M277.2,64.87h-99L187.88,265a32.39,32.39,0,0,0,32,30.54h99L309.21,95.41A32.39,32.39,0,0,0,277.2,64.87Z" style="opacity:0.2"></path><path d="M301.45,64.87H178.23a32.39,32.39,0,0,1,32,30.54L218.1,258.3a32.39,32.39,0,0,0,32,30.54h62.13a28.83,28.83,0,0,0,29.07-30.54L333.46,95.41A32.39,32.39,0,0,0,301.45,64.87Z" style="fill:url(#linear-gradient)"></path><path d="M279.19,258.3a28.83,28.83,0,0,1-29.07,30.54H373.33A28.83,28.83,0,0,0,402.4,258.3Z" style="fill:#cbe1ff"></path><path d="M318.8,166H231.72a2.41,2.41,0,0,1-2.38-2.27h0a2.15,2.15,0,0,1,2.16-2.27h87.09a2.41,2.41,0,0,1,2.38,2.27h0A2.15,2.15,0,0,1,318.8,166Z" style="fill:#407bff"></path><path d="M319.48,180.16H232.4a2.41,2.41,0,0,1-2.38-2.27h0a2.15,2.15,0,0,1,2.16-2.27h87.09a2.41,2.41,0,0,1,2.38,2.27h0A2.15,2.15,0,0,1,319.48,180.16Z" style="fill:#407bff"></path><path d="M320.17,194.33H233.08a2.41,2.41,0,0,1-2.38-2.27h0a2.15,2.15,0,0,1,2.16-2.27h87.09a2.41,2.41,0,0,1,2.38,2.27h0A2.15,2.15,0,0,1,320.17,194.33Z" style="fill:#407bff"></path><path d="M320.85,208.5H233.77a2.41,2.41,0,0,1-2.38-2.27h0a2.15,2.15,0,0,1,2.16-2.27h87.09a2.41,2.41,0,0,1,2.38,2.27h0A2.15,2.15,0,0,1,320.85,208.5Z" style="fill:#407bff"></path><path d="M286.91,222.68H234.45a2.41,2.41,0,0,1-2.38-2.27h0a2.15,2.15,0,0,1,2.16-2.27h52.46a2.41,2.41,0,0,1,2.38,2.27h0A2.15,2.15,0,0,1,286.91,222.68Z" style="fill:#407bff"></path><path d="M300.26,117a25.83,25.83,0,0,1-26,27.36A29,29,0,0,1,245.54,117a25.83,25.83,0,0,1,26-27.36A29,29,0,0,1,300.26,117Z" style="fill:#407bff"></path><path d="M295.48,117a21.73,21.73,0,0,1-2.21,10.76A21.28,21.28,0,0,1,274,139.6a23.88,23.88,0,0,1-20.42-11.82A23.25,23.25,0,0,1,250.32,117a21.31,21.31,0,0,1,21.49-22.58A23.94,23.94,0,0,1,295.48,117Z" style="fill:#fff"></path><path d="M293.27,127.78A21.28,21.28,0,0,1,274,139.6a23.88,23.88,0,0,1-20.42-11.82,34.23,34.23,0,0,1,19.56-6A37,37,0,0,1,293.27,127.78Z" style="fill:#407bff;opacity:0.4"></path><path d="M282.58,109.3A9.49,9.49,0,0,1,273,119.35a10.67,10.67,0,0,1-10.54-10.06A9.49,9.49,0,0,1,272,99.24,10.67,10.67,0,0,1,282.58,109.3Z" style="fill:#407bff;opacity:0.4"></path><polygon points="356.76 327.05 349.42 327.05 348.68 310.04 356.03 310.04 356.76 327.05" style="fill:#b55b52"></polygon><polygon points="348.69 310.05 349.06 318.81 356.41 318.81 356.03 310.05 348.69 310.05" style="opacity:0.2"></polygon><polygon points="419.29 307.12 412.31 309.39 403.52 294.36 410.51 292.09 419.29 307.12" style="fill:#b55b52"></polygon><polygon points="410.51 292.09 403.52 294.37 408.06 302.12 415.04 299.84 410.51 292.09" style="opacity:0.2"></polygon><path d="M381.6,81.23c.91,1.11,1.69,2.11,2.47,3.19s1.54,2.13,2.29,3.21q2.23,3.25,4.23,6.68A75.11,75.11,0,0,1,397.32,109l.16.5.08.26.11.41.2.82.11.75a14.85,14.85,0,0,1,.11,2.71,27.08,27.08,0,0,1-.66,4.53,52.55,52.55,0,0,1-2.51,7.81,90.57,90.57,0,0,1-7.15,14l-5-2.39c1.5-4.68,3-9.49,4.1-14.16a55.81,55.81,0,0,0,1.29-6.84,17.3,17.3,0,0,0,.11-3,5.39,5.39,0,0,0-.15-1.06l0-.18-.05-.09,0,0-.08-.18-.17-.39-.67-1.57-.75-1.56c-.5-1-1-2.08-1.6-3.12-1.13-2.07-2.37-4.12-3.64-6.15s-2.64-4-4-6-2.85-4-4.21-5.8Z" style="fill:#b55b52"></path><path d="M383.23,137.19l-2.87,6.35h8.22s1.31-4.82-1.67-6.77Z" style="fill:#b55b52"></path><polygon points="381.32 150.69 388.94 149.21 388.57 143.55 380.36 143.55 381.32 150.69" style="fill:#b55b52"></polygon><ellipse cx="344.52" cy="49.01" rx="0.7" ry="1.07" style="fill:#263238"></ellipse><path d="M345,50.08a21.21,21.21,0,0,1-2.83,5.07,3.42,3.42,0,0,0,2.83.53Z" style="fill:#a02724"></path><path d="M347.32,45.73a.35.35,0,0,1-.2-.07,2.77,2.77,0,0,0-2.47-.45.35.35,0,0,1-.25-.65,3.45,3.45,0,0,1,3.13.54.35.35,0,0,1-.2.63Z" style="fill:#263238"></path><path d="M364.35,55.84c-1.05,5.37-2.11,15.22,1.65,18.81,0,0-1.47,5.45-11.46,5.45-11,0-5.25-5.45-5.25-5.45,6-1.43,5.84-5.88,4.79-10.05Z" style="fill:#b55b52"></path><path d="M367.44,76.52c.79-1.73,1.65-3.7-.14-4.32-2-.68-12.77-1.37-16.49-.1a3.84,3.84,0,0,0-2.67,4.78Z" style="fill:#263238"></path><path d="M410.8,311.14c-.54.52-1.15.94-1.61.87a.71.71,0,0,1-.57-.6.81.81,0,0,1,.11-.67c.6-.93,3-1.32,3.13-1.34a.17.17,0,0,1,.17.27A9.27,9.27,0,0,1,410.8,311.14Zm-1.63-.38a.94.94,0,0,0-.14.16.47.47,0,0,0-.07.39c.08.32.23.34.28.35.51.08,1.6-1,2.27-1.84A5.73,5.73,0,0,0,409.17,310.77Z" style="fill:#407bff"></path><path d="M412,309.7l-.07,0c-.83.23-3,.08-3.46-.62a.57.57,0,0,1,.09-.71,1,1,0,0,1,.69-.35c1.1-.09,2.69,1.32,2.76,1.38a.17.17,0,0,1,0,.26Zm-3.13-1.13-.05.06c-.14.18-.09.26-.06.3.27.41,1.79.64,2.73.54a4.19,4.19,0,0,0-2.22-1.06A.62.62,0,0,0,408.89,308.57Z" style="fill:#407bff"></path><path d="M346.46,327.43c-.94,0-1.85-.13-2.16-.55a.66.66,0,0,1,0-.76.87.87,0,0,1,.55-.41c1.22-.33,3.79,1.13,3.9,1.19a.17.17,0,0,1-.05.32A12.89,12.89,0,0,1,346.46,327.43ZM345.3,326a1.29,1.29,0,0,0-.34,0,.52.52,0,0,0-.34.24c-.12.22-.08.32,0,.38.34.47,2.2.49,3.56.29A7.86,7.86,0,0,0,345.3,326Z" style="fill:#407bff"></path><path d="M348.68,327.23l-.07,0c-.89-.4-2.64-2-2.51-2.82,0-.2.17-.44.65-.49a1.27,1.27,0,0,1,1,.3c.93.77,1.13,2.75,1.14,2.83a.17.17,0,0,1-.17.19Zm-1.79-3h-.1c-.31,0-.33.16-.34.2-.08.5,1.11,1.75,2,2.29a4.09,4.09,0,0,0-1-2.27A.93.93,0,0,0,346.89,324.25Z" style="fill:#407bff"></path><path d="M411.7,308.58l6-5.7a.64.64,0,0,1,.8-.07l5.56,3.72a1.08,1.08,0,0,1,.13,1.69c-2.12,2-3.24,2.8-5.87,5.31-1.61,1.54-6.44,6.8-8.67,8.93s-4.63.21-3.91-.87c3.23-4.81,5.26-9.42,5.44-11.85A1.78,1.78,0,0,1,411.7,308.58Z" style="fill:#263238"></path><path d="M349.46,326.2h8a.64.64,0,0,1,.63.5l1.45,6.53a1.07,1.07,0,0,1-1.06,1.31c-2.89,0-7.08-.22-10.71-.22-4.25,0-7.93.23-12.91.23-3,0-3.85-3-2.59-3.33,5.75-1.26,10.44-1.39,15.41-4.45A3.4,3.4,0,0,1,349.46,326.2Z" style="fill:#263238"></path><path d="M339,91.34c-2.91,4.29-5.93,8.31-9.17,12.29a138.14,138.14,0,0,1-10.4,11.47L318,116.47l-.36.34-.26.24-.37.32a10.23,10.23,0,0,1-1.51,1,13.46,13.46,0,0,1-5.45,1.53,30.5,30.5,0,0,1-8.66-.71A65.67,65.67,0,0,1,286.5,114l1.83-5.2a117.51,117.51,0,0,0,14.19,1.94,26,26,0,0,0,6.27-.26,4,4,0,0,0,1.66-.65s0-.06,0-.06h0s0,0,0,0l.07-.08.3-.33L312,108c3.13-3.56,6.15-7.36,9.1-11.24S327,88.91,329.81,85Z" style="fill:#b55b52"></path><path d="M379.16,76.31c6.89,1.58,14.78,20.35,14.78,20.35l-13.83,9.48A116.26,116.26,0,0,1,371,90.61C366.9,82,372.12,74.7,379.16,76.31Z" style="fill:#407bff"></path><path d="M374.22,88.28l6.54,17.41-.65.45s-2.83-4-5.89-9.33Z" style="opacity:0.30000000000000004"></path><path d="M338,76.69s-7.82,8.83-.44,63.5h39.29c.27-6-3.52-35.46,2.3-63.88A102.49,102.49,0,0,0,366,74.65a144.26,144.26,0,0,0-16.7,0A73.74,73.74,0,0,0,338,76.69Z" style="fill:#407bff"></path><path d="M342.36,92.49a34.86,34.86,0,0,1-7.76,16.82c-.16-3.52-.22-6.68-.21-9.51Z" style="opacity:0.30000000000000004"></path><path d="M345.75,82.64c1,7-12.74,24.73-12.74,24.73l-13.77-9.48s3.82-9.79,10.25-16.21C336.84,74.36,344.7,75.07,345.75,82.64Z" style="fill:#407bff"></path><path d="M289.32,109.29l-5.39-5.57-5.75,7.42s4.38,4.22,9.59,3Z" style="fill:#b55b52"></path><polygon points="276.53 100.64 274.06 108.43 278.18 111.13 283.93 103.71 276.53 100.64" style="fill:#b55b52"></polygon><path d="M365,47.75c-.45,7.28-.34,11.56-4,15.29-5.53,5.62-14.51,2.29-16.25-5-1.56-6.54-.57-17.34,6.55-20.24A9.94,9.94,0,0,1,365,47.75Z" style="fill:#b55b52"></path><path d="M371.33,32.57c2.24,2.06,1.29,4.36.12,4.79,3.63.75,4.16,3.64,2.25,9.74-1.83,5.84-6.24,13.67-11.75,14.15-8.28.72-10.7-7.9-10.76-16.46-4.69.28-2.67-3.87-8.41-2.91-5,.83-3.13-3.07-7.37-4.77-4.93-2-3.94-9.55.66-7.38,0,0-2.13,1.41.35,2.72s2.24-1.73,7.15-2.09,5.48,3.83,11.22,1.3C362,28.47,366.73,28.34,371.33,32.57Z" style="fill:#263238"></path><path d="M368.57,37.29A2.87,2.87,0,0,1,371.76,36c2.25.48,2.44,1.47,3.85,1.34s.9,1.37.9,1.37-.38-1.13-2.08-.5-2.81-.91-3.54-.22S368.57,37.29,368.57,37.29Z" style="fill:#263238"></path><path d="M355.12,49.73a8.24,8.24,0,0,1-2.57,4.62c-1.78,1.58-3.32.31-3.38-1.85,0-2,.82-5.12,2.87-5.88S355.49,47.58,355.12,49.73Z" style="fill:#b55b52"></path><path d="M351.5,140.19s8.34,56.14,12.91,77.18c5,23,39.85,84.2,39.85,84.2l12.79-4.17s-27.75-55.14-30.61-77.94c-3.1-24.75-9.6-79.26-9.6-79.26Z" style="fill:#263238"></path><path d="M400.69,297.51c-.05,0,2.92,4.48,2.92,4.48L418,297.31l-1.69-4.3Z" style="fill:#407bff"></path><path d="M356.77,160.19c9.64,1.89,8.62,37.84,7.46,56.33-2.78-13.07-6.85-38.22-9.63-56.07A3.29,3.29,0,0,1,356.77,160.19Z" style="opacity:0.30000000000000004"></path><path d="M337.57,140.19s-1,54.93-.21,77.33c.83,23.3,9,99.6,9,99.6h12.44s.46-74.94,1-97.82c.6-24.95,3.62-79.11,3.62-79.11Z" style="fill:#263238"></path><path d="M343.93,312.16c-.06,0,.7,5.17.7,5.17h15.14l.41-4.61Z" style="fill:#407bff"></path></g></g></svg>